<svg width="19" height="20" viewBox="0 0 19 20" fill="none" xmlns="http://www.w3.org/2000/svg">
<g id="UIHUT/bold/archive">
<path id="Vector" d="M13.3158 2.08334H5.68413C3.99788 2.08334 2.6283 3.46084 2.6283 5.13918V16.2938C2.6283 17.7188 3.64955 18.3204 4.90038 17.6317L8.76371 15.4863C9.17538 15.2567 9.84038 15.2567 10.2441 15.4863L14.1075 17.6317C15.3583 18.3283 16.3795 17.7267 16.3795 16.2938V5.13918C16.3716 3.46084 15.002 2.08334 13.3158 2.08334ZM11.8829 8.21876C11.115 8.49584 10.3075 8.63834 9.49996 8.63834C8.69246 8.63834 7.88496 8.49584 7.11705 8.21876C6.8083 8.10793 6.64996 7.76751 6.7608 7.45876C6.87955 7.15001 7.21996 6.99168 7.52871 7.10251C8.8033 7.56168 10.2045 7.56168 11.4791 7.10251C11.7879 6.99168 12.1283 7.15001 12.2391 7.45876C12.35 7.76751 12.1916 8.10793 11.8829 8.21876Z" fill="#92929D" fill-opacity="0.7"/>
</g>
</svg>
