<svg width="19" height="18" viewBox="0 0 19 18" fill="none" xmlns="http://www.w3.org/2000/svg">
<g id=" Outline / briefcase">
<path id="Union" fill-rule="evenodd" clip-rule="evenodd" d="M15.5 13.5C15.5 13.9132 15.1632 14.25 14.75 14.25H13.25V6.75H14.75C15.1632 6.75 15.5 7.08675 15.5 7.5V13.5ZM3.5 13.5V7.5C3.5 7.08675 3.83675 6.75 4.25 6.75H5.75V14.25H4.25C3.83675 14.25 3.5 13.9132 3.5 13.5ZM8 4.125C8 3.918 8.168 3.75 8.375 3.75H10.625C10.832 3.75 11 3.918 11 4.125V5.25H8V4.125ZM7.25 14.25H11.75V6.75H7.25V14.25ZM14.75 5.25H12.5V4.125C12.5 3.0915 11.6585 2.25 10.625 2.25H8.375C7.3415 2.25 6.5 3.0915 6.5 4.125V5.25H4.25C3.0095 5.25 2 6.2595 2 7.5V13.5C2 14.7405 3.0095 15.75 4.25 15.75H14.75C15.9905 15.75 17 14.7405 17 13.5V7.5C17 6.2595 15.9905 5.25 14.75 5.25Z" fill="#92929D" fill-opacity="0.8"/>
</g>
</svg>
