<svg width="19" height="18" viewBox="0 0 19 18" fill="none" xmlns="http://www.w3.org/2000/svg">
<g id=" Outline / clock">
<path id="Union" fill-rule="evenodd" clip-rule="evenodd" d="M12.5 8.25H10.25V6C10.25 5.58525 9.914 5.25 9.5 5.25C9.086 5.25 8.75 5.58525 8.75 6V9C8.75 9.41475 9.086 9.75 9.5 9.75H12.5C12.9148 9.75 13.25 9.41475 13.25 9C13.25 8.58525 12.9148 8.25 12.5 8.25ZM9.5 15C6.19175 15 3.5 12.3082 3.5 9C3.5 5.69175 6.19175 3 9.5 3C12.8082 3 15.5 5.69175 15.5 9C15.5 12.3082 12.8082 15 9.5 15ZM9.5 1.5C5.3645 1.5 2 4.8645 2 9C2 13.1355 5.3645 16.5 9.5 16.5C13.6355 16.5 17 13.1355 17 9C17 4.8645 13.6355 1.5 9.5 1.5Z" fill="#696974" fill-opacity="0.6"/>
</g>
</svg>
