<svg width="19" height="18" viewBox="0 0 19 18" fill="none" xmlns="http://www.w3.org/2000/svg">
<g id=" Outline / people">
<path id="Union" fill-rule="evenodd" clip-rule="evenodd" d="M14 7.5C14 7.08675 13.664 6.75 13.25 6.75C12.836 6.75 12.5 7.08675 12.5 7.5C12.5 7.91325 12.836 8.25 13.25 8.25C13.664 8.25 14 7.91325 14 7.5ZM15.5 7.5C15.5 8.7405 14.4905 9.75 13.25 9.75C12.0095 9.75 11 8.7405 11 7.5C11 6.2595 12.0095 5.25 13.25 5.25C14.4905 5.25 15.5 6.2595 15.5 7.5ZM8.75 5.25C8.75 4.42275 8.07725 3.75 7.25 3.75C6.42275 3.75 5.75 4.42275 5.75 5.25C5.75 6.07725 6.42275 6.75 7.25 6.75C8.07725 6.75 8.75 6.07725 8.75 5.25ZM10.25 5.25C10.25 6.9045 8.9045 8.25 7.25 8.25C5.5955 8.25 4.25 6.9045 4.25 5.25C4.25 3.5955 5.5955 2.25 7.25 2.25C8.9045 2.25 10.25 3.5955 10.25 5.25ZM10.955 11.2845C11.6067 10.7805 12.4093 10.5 13.25 10.5C15.3177 10.5 17 12.1823 17 14.25C17 14.664 16.6648 15 16.25 15C15.8352 15 15.5 14.664 15.5 14.25C15.5 13.0095 14.4905 12 13.25 12C12.7378 12 12.251 12.1755 11.858 12.4867C12.266 13.2337 12.5 14.0903 12.5 15C12.5 15.414 12.1648 15.75 11.75 15.75C11.3352 15.75 11 15.414 11 15C11 12.9323 9.31775 11.25 7.25 11.25C5.18225 11.25 3.5 12.9323 3.5 15C3.5 15.414 3.16475 15.75 2.75 15.75C2.33525 15.75 2 15.414 2 15C2 12.105 4.35575 9.75 7.25 9.75C8.69525 9.75 10.0047 10.3372 10.955 11.2845Z" fill="#92929D" fill-opacity="0.6"/>
</g>
</svg>
