<svg width="20" height="20" viewBox="0 0 20 20" fill="none" xmlns="http://www.w3.org/2000/svg">
<g id=" Outline / pin">
<path id="Union" fill-rule="evenodd" clip-rule="evenodd" d="M9.99998 9.16621C9.31081 9.16621 8.74998 8.60538 8.74998 7.91621C8.74998 7.22704 9.31081 6.66621 9.99998 6.66621C10.6891 6.66621 11.25 7.22704 11.25 7.91621C11.25 8.60538 10.6891 9.16621 9.99998 9.16621ZM9.99998 4.99954C8.39165 4.99954 7.08331 6.30788 7.08331 7.91621C7.08331 9.52454 8.39165 10.8329 9.99998 10.8329C11.6083 10.8329 12.9166 9.52454 12.9166 7.91621C12.9166 6.30788 11.6083 4.99954 9.99998 4.99954ZM9.99998 16.3716C8.60415 15.0516 4.99998 11.3458 4.99998 8.26829C4.99998 5.54746 7.24248 3.33329 9.99998 3.33329C12.7575 3.33329 15 5.54746 15 8.26829C15 11.3458 11.3958 15.0516 9.99998 16.3716ZM9.99998 1.66663C6.32415 1.66663 3.33331 4.62746 3.33331 8.26829C3.33331 12.8308 9.20748 17.9175 9.45748 18.1316C9.61415 18.2658 9.80665 18.3333 9.99998 18.3333C10.1933 18.3333 10.3858 18.2658 10.5425 18.1316C10.7925 17.9175 16.6666 12.8308 16.6666 8.26829C16.6666 4.62746 13.6758 1.66663 9.99998 1.66663Z" fill="#92929D" fill-opacity="0.8"/>
</g>
</svg>
